<svg width="25" height="24" viewBox="0 0 25 24" fill="none" xmlns="http://www.w3.org/2000/svg">
<path d="M12.501 9C11.7054 9 10.9423 9.31607 10.3797 9.87868C9.81707 10.4413 9.501 11.2044 9.501 12C9.501 12.7956 9.81707 13.5587 10.3797 14.1213C10.9423 14.6839 11.7054 15 12.501 15C13.2966 15 14.0597 14.6839 14.6223 14.1213C15.1849 13.5587 15.501 12.7956 15.501 12C15.501 11.2044 15.1849 10.4413 14.6223 9.87868C14.0597 9.31607 13.2966 9 12.501 9ZM12.501 7C13.8271 7 15.0989 7.52678 16.0365 8.46447C16.9742 9.40215 17.501 10.6739 17.501 12C17.501 13.3261 16.9742 14.5979 16.0365 15.5355C15.0989 16.4732 13.8271 17 12.501 17C11.1749 17 9.90315 16.4732 8.96547 15.5355C8.02778 14.5979 7.501 13.3261 7.501 12C7.501 10.6739 8.02778 9.40215 8.96547 8.46447C9.90315 7.52678 11.1749 7 12.501 7ZM19.001 6.75C19.001 7.08152 18.8693 7.39946 18.6349 7.63388C18.4005 7.8683 18.0825 8 17.751 8C17.4195 8 17.1015 7.8683 16.8671 7.63388C16.6327 7.39946 16.501 7.08152 16.501 6.75C16.501 6.41848 16.6327 6.10054 16.8671 5.86612C17.1015 5.6317 17.4195 5.5 17.751 5.5C18.0825 5.5 18.4005 5.6317 18.6349 5.86612C18.8693 6.10054 19.001 6.41848 19.001 6.75ZM12.501 4C10.027 4 9.623 4.007 8.472 4.058C7.688 4.095 7.162 4.2 6.674 4.39C6.26562 4.53994 5.89641 4.78026 5.594 5.093C5.28101 5.3954 5.04035 5.76458 4.89 6.173C4.7 6.663 4.595 7.188 4.559 7.971C4.507 9.075 4.5 9.461 4.5 12C4.5 14.475 4.507 14.878 4.558 16.029C4.595 16.812 4.7 17.339 4.889 17.826C5.059 18.261 5.259 18.574 5.591 18.906C5.928 19.242 6.241 19.443 6.671 19.609C7.165 19.8 7.691 19.906 8.471 19.942C9.575 19.994 9.961 20 12.5 20C14.975 20 15.378 19.993 16.529 19.942C17.311 19.905 17.837 19.8 18.326 19.611C18.734 19.4603 19.1031 19.2201 19.406 18.908C19.743 18.572 19.944 18.259 20.11 17.828C20.3 17.336 20.406 16.81 20.442 16.028C20.494 14.925 20.5 14.538 20.5 12C20.5 9.526 20.493 9.122 20.442 7.971C20.405 7.189 20.299 6.661 20.11 6.173C19.9593 5.76502 19.719 5.39598 19.407 5.093C19.1047 4.77985 18.7355 4.53917 18.327 4.389C17.837 4.199 17.311 4.094 16.529 4.058C15.426 4.006 15.04 4 12.5 4M12.5 2C15.217 2 15.556 2.01 16.623 2.06C17.687 2.11 18.413 2.277 19.05 2.525C19.71 2.779 20.266 3.123 20.822 3.678C21.3305 4.1779 21.724 4.78259 21.975 5.45C22.222 6.087 22.39 6.813 22.44 7.878C22.487 8.944 22.5 9.283 22.5 12C22.5 14.717 22.49 15.056 22.44 16.122C22.39 17.187 22.222 17.912 21.975 18.55C21.7246 19.2178 21.3311 19.8226 20.822 20.322C20.322 20.8303 19.7173 21.2238 19.05 21.475C18.413 21.722 17.687 21.89 16.623 21.94C15.556 21.987 15.217 22 12.5 22C9.783 22 9.444 21.99 8.377 21.94C7.313 21.89 6.588 21.722 5.95 21.475C5.28233 21.2245 4.67753 20.8309 4.178 20.322C3.66943 19.8222 3.27596 19.2175 3.025 18.55C2.777 17.913 2.61 17.187 2.56 16.122C2.512 15.056 2.5 14.717 2.5 12C2.5 9.283 2.51 8.944 2.56 7.878C2.61 6.813 2.777 6.088 3.025 5.45C3.27524 4.78218 3.6688 4.17732 4.178 3.678C4.67767 3.16923 5.28243 2.77573 5.95 2.525C6.587 2.277 7.312 2.11 8.377 2.06C9.445 2.013 9.784 2 12.501 2" fill="white"/>
</svg>
