<svg width="25" height="24" viewBox="0 0 25 24" fill="none" xmlns="http://www.w3.org/2000/svg">
<path d="M7.943 5.34998C8.582 5.34998 9.173 5.39998 9.713 5.54798C10.254 5.64698 10.697 5.84498 11.09 6.09198C11.484 6.33898 11.779 6.68598 11.975 7.13098C12.172 7.57598 12.271 8.12098 12.271 8.71398C12.271 9.40698 12.123 9.99998 11.779 10.445C11.484 10.891 10.992 11.286 10.402 11.583C11.238 11.831 11.877 12.276 12.271 12.869C12.664 13.463 12.91 14.205 12.91 15.046C12.91 15.739 12.762 16.332 12.516 16.827C12.271 17.322 11.877 17.767 11.434 18.064C10.9528 18.3823 10.4208 18.6164 9.861 18.756C9.271 18.905 8.681 19.004 8.091 19.004H1.5V5.34998H7.943ZM7.549 10.89C8.09 10.89 8.533 10.742 8.877 10.495C9.221 10.248 9.369 9.80198 9.369 9.25798C9.369 8.96098 9.319 8.66398 9.221 8.46698C9.123 8.26898 8.975 8.11998 8.779 7.97198C8.57851 7.85961 8.363 7.77644 8.139 7.72498C7.893 7.67498 7.648 7.67498 7.352 7.67498H4.5V10.891L7.549 10.89ZM7.697 16.728C7.992 16.728 8.287 16.678 8.533 16.629C8.779 16.579 9.025 16.481 9.221 16.332C9.42138 16.1872 9.58903 16.0018 9.713 15.788C9.811 15.541 9.91 15.244 9.91 14.898C9.91 14.205 9.713 13.71 9.32 13.364C8.926 13.067 8.385 12.919 7.746 12.919H4.5V16.729L7.697 16.728ZM17.189 16.678C17.582 17.074 18.172 17.272 18.959 17.272C19.5 17.272 19.992 17.124 20.385 16.877C20.779 16.58 21.025 16.283 21.123 15.986H23.533C23.139 17.173 22.549 18.014 21.763 18.558C20.975 19.053 20.041 19.35 18.91 19.35C18.1864 19.3522 17.4688 19.2179 16.795 18.954C16.1887 18.7266 15.648 18.3528 15.221 17.866C14.7643 17.4106 14.4267 16.8497 14.238 16.233C13.992 15.59 13.893 14.898 13.893 14.106C13.893 13.364 13.992 12.672 14.238 12.028C14.4748 11.408 14.8251 10.8376 15.271 10.346C15.713 9.90098 16.254 9.50598 16.844 9.25798C17.5007 8.99404 18.2022 8.85957 18.91 8.86198C19.746 8.86198 20.484 9.01098 21.123 9.35698C21.763 9.70298 22.254 10.099 22.647 10.693C23.041 11.237 23.337 11.88 23.533 12.573C23.631 13.265 23.68 13.958 23.631 14.749H16.5C16.5 15.541 16.795 16.283 17.189 16.679M20.287 11.485C19.943 11.139 19.402 10.941 18.762 10.941C18.3867 10.9354 18.0156 11.0201 17.68 11.188C17.385 11.337 17.189 11.535 16.992 11.733C16.811 11.9242 16.6912 12.1652 16.648 12.425C16.598 12.673 16.549 12.87 16.549 13.068H20.975C20.877 12.326 20.631 11.832 20.287 11.485ZM15.959 6.28998H21.467V7.62598H15.96L15.959 6.28998Z" fill="white"/>
</svg>
