<svg width="631" height="275" viewBox="0 0 631 275" fill="none" xmlns="http://www.w3.org/2000/svg">
<path d="M530.165 80.7256C535.28 81.5465 537.837 85.1462 537.837 91.5244C536.448 98.4079 534.333 103.46 531.491 106.681H529.312V105.449C529.312 104.628 529.691 104.218 530.449 104.218V104.123C529.186 102.797 528.554 101.85 528.554 101.281C528.554 100.145 528.807 98.8499 529.312 97.3975C529.312 97.2712 529.186 96.9554 528.933 96.4502C529.186 94.2399 529.312 92.4401 529.312 91.0508C529.312 89.4089 528.302 87.4512 526.281 85.1777C526.786 82.2096 528.081 80.7256 530.165 80.7256Z" fill="#FF0C00"/>
<path d="M466.129 130.268C468.592 130.457 469.887 131.436 470.013 133.204L470.108 133.867C470.297 135.951 469.634 138.067 468.119 140.214V140.593H468.403C473.455 135.225 477.307 132.288 479.959 131.783C479.896 131.341 481.033 130.583 483.37 129.51H485.643C490.632 129.51 493.411 132.541 493.979 138.604C493.284 139.93 492.937 140.814 492.937 141.256L493.316 141.919C491.737 147.855 491.042 151.739 491.232 153.57L491.421 155.938C491.485 156.254 491.863 156.57 492.558 156.886H493.221C499.473 155.307 505.157 152.497 510.272 148.455C515.387 144.413 519.082 140.782 521.355 137.562C522.871 135.604 523.976 134.53 524.67 134.341C525.365 134.088 525.997 134.215 526.565 134.72C527.133 135.162 526.754 136.488 525.428 138.698C521.765 144.382 518.166 148.897 514.629 152.244C511.093 155.528 506.799 158.591 501.747 161.433C500.294 162.317 497.989 163.075 494.832 163.706C488.011 163.011 484.38 160.517 483.938 156.223C483.749 155.907 483.591 155.244 483.464 154.233C483.338 152.718 484.475 147.508 486.875 138.604L486.59 136.046C486.527 135.604 486.275 135.383 485.833 135.383H484.601C480.875 138.098 477.055 141.351 473.139 145.14C472.823 145.14 471.845 146.34 470.203 148.739C469.319 149.055 467.392 151.644 464.424 156.507C463.603 156.696 462.814 158.559 462.056 162.096C459.53 166.769 457.92 169.263 457.225 169.579C457.288 169.769 456.878 169.99 455.994 170.242C452.899 169.611 451.257 168.411 451.068 166.643V166.358C451.51 161.748 453.31 155.654 456.467 148.076C459.183 143.277 461.583 137.783 463.667 131.594C464.677 130.71 465.498 130.268 466.129 130.268Z" fill="#FF0C00"/>
<path d="M449.363 99.5762C452.015 100.081 453.404 100.334 453.531 100.334V101.471C452.647 104.312 448.479 108.228 441.027 113.217C437.301 115.49 434.522 116.627 432.691 116.627C430.165 116.311 428.902 115.048 428.902 112.838C428.902 110.943 432.944 108.038 441.027 104.123C443.048 102.607 445.826 101.092 449.363 99.5762ZM428.523 130.646H429.281C430.67 130.646 431.681 131.278 432.312 132.541V133.678C428.018 141.761 425.871 148.329 425.871 153.381V157.549C425.871 159.507 426.628 160.896 428.144 161.717H431.175C434.522 161.717 440.458 157.928 448.984 150.35C449.742 150.35 450.5 149.592 451.257 148.076C451.636 148.076 455.046 144.54 461.488 137.467C461.867 137.467 462.246 136.709 462.625 135.193C464.14 134.183 465.277 133.678 466.035 133.678H466.414C466.919 133.741 467.171 133.993 467.171 134.436C465.024 141.193 460.73 148.266 454.289 155.654C446.774 162.854 440.332 167.148 434.964 168.537L431.175 169.295C422.334 168.285 417.914 163.99 417.914 156.412C417.598 156.412 417.345 155.654 417.156 154.139C419.05 144.161 421.829 137.467 425.492 134.057L428.523 130.646Z" fill="#FF0C00"/>
<path d="M388.643 87.5459C389.906 88.0511 390.917 88.6826 391.674 89.4404C390.853 91.2087 388.39 98.2184 384.286 110.47C382.012 114.259 380.497 118.395 379.739 122.879C374.434 135.635 371.056 144.792 369.603 150.35H369.224C370.992 149.15 372.792 147.318 374.624 144.855C374.876 144.855 376.581 142.961 379.739 139.172L388.643 132.162L395.084 129.983C398.242 129.983 400.579 132.636 402.094 137.94V138.319C402.157 139.33 401.589 144.003 400.389 152.339C400.894 154.865 401.305 156.128 401.621 156.128H402.568C406.294 156.128 412.861 150.255 422.271 138.509C422.903 137.309 424.134 135.699 425.965 133.678L426.25 132.162H428.428L428.144 134.341C428.965 134.404 429.375 134.783 429.375 135.478C428.744 136.741 428.144 139.109 427.576 142.582L420.661 151.96L413.84 157.928C409.293 161.654 405.725 163.517 403.136 163.517C398.779 163.517 395.59 161.148 393.569 156.412L393.285 151.486C393.158 149.465 393.664 144.982 394.8 138.035C394.737 137.151 394.485 136.709 394.042 136.709C389.369 138.477 381.981 145.519 371.876 157.833C368.719 164.085 365.403 168.821 361.93 172.042C358.267 171.789 356.404 170.716 356.341 168.821C356.468 167.685 356.625 167.116 356.815 167.116C356.878 167.558 356.752 167.779 356.436 167.779C357.383 163.674 358.141 161.622 358.709 161.622L358.615 160.012C358.615 159.317 360.415 154.107 364.014 144.382V144.571H363.351C366.067 139.077 368.087 134.404 369.414 130.552C370.298 127.457 374.75 116.28 382.77 97.0186C385.043 90.7035 387.001 87.5459 388.643 87.5459Z" fill="#FF0C00"/>
<path d="M344.406 122.121H345.827C349.805 122.626 351.794 124.268 351.794 127.047V127.899C350.089 134.404 347.974 137.656 345.448 137.656C343.364 137.656 341.911 136.456 341.09 134.057C342.038 131.278 342.511 129.604 342.511 129.036C340.364 129.604 335.312 133.93 327.355 142.014C324.639 147.382 323.282 150.665 323.282 151.865V154.612C323.282 157.075 326.124 158.307 331.807 158.307C346.142 156.16 357.352 149.592 365.435 138.604C366.256 138.604 368.498 136.867 372.161 133.394H373.392L373.96 137.467C373.455 137.467 371.719 139.677 368.75 144.098C368.119 144.098 365.846 146.466 361.93 151.202C353.026 160.359 342.543 165.032 330.481 165.222H328.681C321.735 165.222 317.282 161.622 315.325 154.423V153.286C315.325 147.287 318.861 141.098 325.934 134.72C335.596 126.321 341.753 122.121 344.406 122.121ZM371.119 137.088C371.119 137.151 371.087 137.183 371.024 137.183L371.876 135.856V136.046H371.971C371.845 136.046 371.561 136.393 371.119 137.088Z" fill="#FF0C00"/>
<path d="M301.305 74L303.2 74.4736L305.378 74C306.515 75.4525 307.083 76.526 307.083 77.2207C307.083 78.9258 304.557 84.0726 299.505 92.6611C299.632 93.4821 299.979 93.8926 300.547 93.8926H306.705C307.968 93.3242 318.766 92.2507 339.101 90.6719L345.069 89.8193L346.963 89.3457C349.174 89.6615 351.1 89.8193 352.742 89.8193C353.247 89.3141 355.741 88.8721 360.225 88.4932C361.551 88.8089 362.814 88.9668 364.014 88.9668H365.53C366.161 88.9668 366.667 88.8405 367.045 88.5879L367.708 88.9668C370.55 88.3353 372.476 88.0195 373.487 88.0195C374.876 88.0195 376.392 88.3353 378.034 88.9668C379.044 88.3353 380.055 88.0195 381.065 88.0195H385.612C386.243 88.0195 386.749 87.8932 387.127 87.6406C387.506 87.8932 388.012 88.0195 388.643 88.0195H391.295C392.369 88.0195 393.379 87.8932 394.327 87.6406C395.274 87.8932 396.284 88.0195 397.358 88.0195C393.821 88.3984 395.874 88.5879 403.515 88.5879C403.452 88.5247 403.705 88.4932 404.273 88.4932C405.094 87.9248 405.82 87.6406 406.452 87.6406C410.114 87.8932 412.23 88.0195 412.798 88.0195V87.7354L415.545 88.4932L428.049 87.6406L430.323 88.0195L435.059 87.167L435.438 88.1143L440.174 87.6406H445.1C445.542 87.6406 445.763 87.7985 445.763 88.1143C445.637 88.1143 445.574 87.9564 445.574 87.6406L449.647 87.167C451.857 87.4827 453.531 87.6406 454.667 87.6406V89.0615L452.205 87.6406H454.573C455.52 87.6406 456.625 87.4827 457.888 87.167L458.646 87.6406L464.424 86.6934L466.224 87.6406C466.603 87.6406 467.045 87.4827 467.55 87.167C468.056 87.167 468.308 87.3249 468.308 87.6406C471.024 87.3249 473.013 87.167 474.276 87.167H481.854L484.127 86.6934C484.696 86.946 484.98 87.2617 484.98 87.6406C485.675 87.6406 486.78 87.3564 488.295 86.7881L490.19 87.6406C490.695 87.3249 491.2 87.4827 491.706 88.1143H491.8V89.3457H493.126C493.379 87.5775 493.663 86.6934 493.979 86.6934H502.883L504.399 89.3457H506.293C506.609 88.1458 506.767 87.388 506.767 87.0723C506.893 87.0723 506.957 87.2617 506.957 87.6406L506.104 86.6934C507.493 86.6934 509.23 87.5775 511.314 89.3457C512.072 89.3457 512.451 88.8721 512.451 87.9248C511.693 87.9248 511.314 87.9248 511.314 87.9248L512.261 86.9775L513.398 86.7881C513.587 88.8089 514.408 89.8193 515.861 89.8193C515.861 88.0511 514.629 87.3249 512.167 87.6406H518.418L517.85 89.8193H518.987C519.934 89.8193 520.85 89.3773 521.734 88.4932C522.429 88.4932 523.281 88.9668 524.292 89.9141L525.428 89.251L524.955 88.1143V87.8301C524.955 88.0195 525.018 88.1143 525.144 88.1143C525.144 87.7985 526.218 88.3669 528.365 89.8193H529.88C529.88 88.8721 530.67 88.1458 532.249 87.6406C532.627 87.8932 533.164 88.0195 533.859 88.0195C533.291 88.3984 533.543 88.5879 534.617 88.5879C534.617 88.2721 535.059 88.3984 535.943 88.9668C536.132 88.9668 536.669 88.8089 537.553 88.4932H538.974C538.974 88.5563 539.132 88.2721 539.448 87.6406H541.153C541.216 87.7669 541.248 88.2721 541.248 89.1562L542.1 90.1035C541.469 90.1035 540.616 89.7246 539.542 88.9668V88.3984L540.3 88.8721C537.648 89.693 536.227 90.1035 536.038 90.1035H534.143C533.259 90.1035 532.091 89.9772 530.638 89.7246L529.123 90.5771C527.481 90.2614 526.123 90.1035 525.049 90.1035H524.576C522.807 91.1771 521.923 91.3981 521.923 90.7666C521.102 90.3245 520.345 90.1035 519.65 90.1035C518.829 90.735 518.229 91.0508 517.85 91.0508L515.671 90.4824C515.671 90.7982 515.671 91.1139 515.671 91.4297H513.208V90.5771H512.451C511.945 91.2087 510.114 91.6507 506.957 91.9033C506.957 91.5876 506.388 91.4297 505.251 91.4297C505.315 91.4297 505.094 91.4297 504.588 91.4297C502.125 92.0612 500.357 92.377 499.284 92.377L496.537 91.9033L495.116 92.7559L493.221 92.377C492.59 92.377 490.948 92.6611 488.295 93.2295C484.759 92.6611 482.801 92.0612 482.422 91.4297H481.759C480.938 92.3138 480.37 92.7559 480.054 92.7559C479.233 92.1875 478.444 91.9033 477.686 91.9033H477.307C476.802 91.9033 475.034 92.6296 472.002 94.082L471.339 93.7031H462.909C461.961 93.7031 460.856 93.8294 459.593 94.082C459.151 93.8294 458.614 93.7031 457.983 93.7031C456.53 93.7031 455.804 93.9242 455.804 94.3662C455.11 93.9242 454.194 93.7031 453.057 93.7031H450.784C450.531 93.7031 449.521 93.9873 447.752 94.5557H446.237C445.668 94.5557 444.532 94.2715 442.827 93.7031L437.522 95.0293C437.333 95.0293 436.985 94.8714 436.48 94.5557C428.712 95.124 422.113 95.4082 416.682 95.4082H415.167C414.219 95.4082 413.083 95.5661 411.756 95.8818L409.957 95.0293L398.874 95.8818L396.979 95.4082C396.032 95.7871 395.558 96.0713 395.558 96.2607L392.053 95.8818H386.749C385.296 95.8818 383.402 96.1976 381.065 96.8291C380.307 96.8291 379.707 96.6712 379.265 96.3555L366.288 97.208L364.014 96.7344C362.12 97.3659 360.857 97.6816 360.225 97.6816L356.436 97.208C340.08 98.1553 319.145 100.018 293.632 102.797C293.822 102.86 293.001 104.376 291.169 107.344C291.169 108.038 289.149 112.301 285.107 120.132C280.307 134.215 277.908 141.635 277.908 142.393C277.908 142.708 278.034 143.15 278.287 143.719C277.529 146.75 277.15 149.844 277.15 153.002V156.98C277.781 160.706 279.897 162.569 283.497 162.569C287.601 162.569 295.243 158.875 306.42 151.486C309.704 149.465 312.609 147.413 315.135 145.329C318.419 141.793 322.208 136.835 326.502 130.457L327.071 131.31C326.502 135.162 325.46 138.604 323.945 141.635C315.861 151.423 310.146 157.044 306.799 158.496C305.221 160.138 302.821 161.906 299.6 163.801C293.159 168.221 287.665 170.432 283.118 170.432C277.876 169.674 274.056 167.811 271.656 164.843C271.656 163.706 271.024 162.254 269.761 160.485L270.14 159.728V158.78C270.14 157.707 269.761 156.633 269.003 155.56V154.802L269.761 153.476V150.823C269.761 149.75 269.888 148.392 270.14 146.75C269.888 146.182 269.761 145.771 269.761 145.519C270.519 141.098 272.035 135.951 274.308 130.078C274.687 126.415 275.697 123.605 277.339 121.647C278.097 117.732 279.234 114.796 280.75 112.838C282.518 109.428 283.402 107.217 283.402 106.207C283.023 106.207 282.581 106.049 282.076 105.733L249.395 111.985C247.185 110.849 245.764 109.586 245.132 108.196C245.385 106.681 245.511 105.923 245.511 105.923L246.458 103.839C267.235 99.292 281.665 96.5765 289.749 95.6924C293.601 90.1351 295.527 86.5355 295.527 84.8936C296.474 83.6305 298.211 80.1257 300.737 74.3789L301.305 74ZM528.175 88.1143H526.47V86.125H528.175V88.1143ZM541.816 86.9775V90.293H538.595V86.9775H541.816ZM546.742 88.9668H545.037V86.9775H546.742V88.9668ZM548.257 89.251C547.121 89.0615 546.552 88.4616 546.552 87.4512H548.257V89.251ZM556.404 88.209V88.7773C556.53 88.7773 556.278 89.0931 555.646 89.7246H555.457C554.825 88.9036 555.141 88.3984 556.404 88.209ZM569.666 89.0615C570.234 88.6826 569.855 88.4932 568.529 88.4932C568.529 88.3669 568.529 88.3037 568.529 88.3037H569.476V88.6826L569.666 89.0615ZM500.326 91.2402C500.326 89.2194 500.957 88.0827 502.22 87.8301H504.304V89.8193L503.262 92.1875C502.189 91.556 501.21 91.2402 500.326 91.2402ZM550.152 89.251C550.278 89.251 550.341 89.5036 550.341 90.0088L553.657 89.1562C550.689 89.1562 549.205 89.1562 549.205 89.1562L550.152 89.251ZM560.003 90.7666H558.298V88.7773H560.003V90.7666Z" fill="#FF0C00"/>
<path d="M259.72 99.5762C262.373 100.081 263.762 100.334 263.888 100.334V101.471C263.004 104.312 258.836 108.228 251.384 113.217C247.658 115.49 244.88 116.627 243.048 116.627C240.522 116.311 239.259 115.048 239.259 112.838C239.259 110.943 243.301 108.038 251.384 104.123C253.405 102.607 256.184 101.092 259.72 99.5762ZM238.88 130.646H239.638C241.028 130.646 242.038 131.278 242.669 132.541V133.678C238.375 141.761 236.228 148.329 236.228 153.381V157.549C236.228 159.507 236.986 160.896 238.501 161.717H241.533C244.88 161.717 250.816 157.928 259.341 150.35C260.099 150.35 260.857 149.592 261.615 148.076C261.994 148.076 265.404 144.54 271.845 137.467C272.224 137.467 272.603 136.709 272.982 135.193C274.498 134.183 275.634 133.678 276.392 133.678H276.771C277.276 133.741 277.529 133.993 277.529 134.436C275.382 141.193 271.087 148.266 264.646 155.654C257.131 162.854 250.69 167.148 245.322 168.537L241.533 169.295C232.692 168.285 228.271 163.99 228.271 156.412C227.955 156.412 227.703 155.654 227.513 154.139C229.408 144.161 232.186 137.467 235.849 134.057L238.88 130.646Z" fill="#FF0C00"/>
<path d="M186.212 78.0732L187.633 78.4521L190.665 78.0732C191.801 78.0732 192.37 78.2943 192.37 78.7363C193.696 78.5469 194.359 78.3258 194.359 78.0732C199.474 78.5153 202.979 79.0837 204.874 79.7783L205.631 79.3994C214.346 80.9782 220.44 83.599 223.914 87.2617C226.376 90.5456 227.608 93.9242 227.608 97.3975C226.282 103.586 221.766 110.154 214.062 117.101C210.147 120.321 205.158 123.479 199.095 126.573C196.19 128.405 190.317 131.12 181.476 134.72L181.192 135.383C194.58 138.856 206.231 145.076 216.146 154.044C218.23 155.686 220.377 159.885 222.587 166.643L222.208 167.306C222.903 169.516 223.25 170.968 223.25 171.663C223.25 175.389 220.63 180.725 215.388 187.672C211.283 191.966 203.484 196.355 191.991 200.839L179.487 203.207L177.782 202.544C175.193 203.681 171.119 204.249 165.562 204.249L164.236 203.586C163.983 203.586 163.068 203.712 161.489 203.965L158.458 203.586C157.194 203.839 156.279 203.965 155.71 203.965C154.889 203.46 153.879 203.207 152.679 203.207C152.427 203.207 152.079 203.333 151.637 203.586C147.532 202.891 145.164 202.228 144.533 201.597C144.343 201.597 143.649 201.691 142.449 201.881C139.102 200.87 137.081 200.207 136.386 199.892H136.007L135.06 200.555H134.681C133.544 200.555 132.976 200.207 132.976 199.513H130.608C130.608 197.934 129.692 197.145 127.861 197.145V196.766H125.872C125.24 196.766 124.545 196.545 123.788 196.103C123.409 196.355 122.967 196.481 122.461 196.481C122.146 195.913 119.999 194.997 116.02 193.734C116.02 193.04 114.441 192.598 111.284 192.408C110.589 190.829 108.442 189.693 104.842 188.998C104.842 188.745 104.4 188.398 103.516 187.956H102.758C97.3273 195.218 93.6014 200.997 91.5806 205.291C91.1385 205.291 90.0018 206.775 88.1704 209.743C86.5285 210.501 84.9497 213.09 83.4341 217.511C82.9289 217.511 80.7817 220.226 76.9927 225.657C76.4875 225.657 73.772 228.246 68.8462 233.425C67.8358 233.425 66.6991 234.435 65.436 236.456H62.4048V235.793C62.4048 235.288 63.5415 234.404 65.8149 233.141L65.436 231.436C66.8885 230.362 68.0252 228.657 68.8462 226.32C70.6776 225.626 71.8143 225.057 72.2563 224.615L71.9722 223.952V223.573C73.993 222.31 75.0034 221.079 75.0034 219.879H73.9614V218.837C74.7192 218.837 75.2876 218.174 75.6665 216.848C76.1717 216.848 76.6138 215.932 76.9927 214.101C78.3188 212.269 79.1082 211.354 79.3608 211.354C79.3608 211.606 79.4871 211.732 79.7397 211.732C79.424 212.806 78.9819 213.374 78.4136 213.438C78.603 213.88 78.6978 214.227 78.6978 214.479H79.0767C80.6554 213.027 81.4448 211.89 81.4448 211.069C81.1922 210.185 80.7186 209.743 80.0239 209.743V209.364C82.3605 206.586 84.4129 203.428 86.1812 199.892C88.0125 199.45 88.9282 198.755 88.9282 197.808L88.5493 196.481C88.6756 195.282 90.2544 193.576 93.2856 191.366C93.3488 190.924 93.5698 190.703 93.9487 190.703L93.6646 190.04V189.377C93.7909 189.377 94.2329 189.251 94.9907 188.998L94.6118 186.63H96.3169V185.967C95.6854 183.251 94.3276 181.894 92.2437 181.894C90.5386 181.894 88.8651 180.631 87.2231 178.104C85.1392 177.473 81.729 175.326 76.9927 171.663H76.7085C76.4559 171.663 76.3296 171.789 76.3296 172.042C75.8875 172.042 74.5298 170.558 72.2563 167.59C70.8039 167.59 69.6672 166.485 68.8462 164.274C69.0988 163.832 69.2251 163.359 69.2251 162.854H67.52C67.1411 161.717 66.5728 161.148 65.8149 161.148L66.1938 159.443C65.436 159.001 64.8677 158.78 64.4888 158.78V157.833C65.3729 157.833 65.8149 157.58 65.8149 157.075C64.8677 157.075 63.952 156.065 63.0679 154.044C63.4468 153.16 63.7941 152.718 64.1099 152.718C65.1203 154.802 66.6991 156.949 68.8462 159.159C68.8462 161.875 70.425 163.232 73.5825 163.232V163.517L72.9194 164.559C72.9826 165.001 73.2036 165.222 73.5825 165.222H74.6245C74.8771 165.222 75.0034 165.127 75.0034 164.938C76.4559 164.938 77.5926 165.727 78.4136 167.306C80.7502 168.506 84.0024 170.747 88.1704 174.031C92.5278 176.62 95.938 178.326 98.4009 179.146H98.6851C98.8114 179.146 99.1587 178.925 99.7271 178.483H100.106V179.81C100.485 180.062 100.927 180.188 101.432 180.188C101.685 179.936 101.906 178.452 102.095 175.736L100.769 176.778V176.115C100.769 175.421 101.432 174.726 102.758 174.031C102.885 174.536 103.137 174.789 103.516 174.789L103.8 174.031L103.137 173.747C103.137 173.937 103.011 174.031 102.758 174.031C102.758 173.589 102.664 173.368 102.474 173.368L106.168 166.927C106.8 165.601 107.589 164.938 108.537 164.938L108.252 164.274C108.442 162.443 109.01 161.527 109.958 161.527C110.4 161.78 110.715 161.906 110.905 161.906C111.599 161.022 111.947 160.327 111.947 159.822C111.252 159.57 110.905 159.349 110.905 159.159C110.905 158.717 111.473 157.359 112.61 155.086L114.031 155.465C114.473 155.212 114.789 155.086 114.978 155.086V154.423L114.315 153.381V152.718C115.767 152.718 117.125 151.234 118.388 148.266H119.43V147.318H118.104C117.599 147.318 117.346 147.76 117.346 148.645H117.062C117.062 147.508 115.357 146.718 111.947 146.276C111.947 146.024 111.852 145.897 111.663 145.897L111.947 144.192V143.908H111.284V143.529L111.947 142.487V142.203H111.284C110.842 142.203 110.621 142.55 110.621 143.245H109.579C109.579 140.151 113.999 137.183 122.84 134.341C124.103 132.32 125.24 131.31 126.25 131.31L125.493 130.362L128.903 127.899V127.615H128.619L126.914 127.899L128.903 123.826C130.418 122.374 131.903 118.869 133.355 113.312C134.302 112.617 137.112 106.649 141.786 95.4082C141.344 95.4082 141.123 95.2819 141.123 95.0293C129.124 99.1341 115.799 105.797 101.148 115.017C92.4963 120.89 86.1496 125.879 82.1079 129.983L79.7397 135.383L78.0347 135.762C75.8244 135.762 74.4666 134.625 73.9614 132.352C74.5929 129.068 77.1821 125.437 81.729 121.458C86.2127 118.3 88.9282 115.838 89.8755 114.069C94.9907 110.47 99.1903 107.975 102.474 106.586C102.79 105.323 105.379 103.618 110.242 101.471H110.905L113.273 101.85L113.652 101.187C113.652 100.681 113.431 100.429 112.989 100.429L112.326 100.808V100.429C117.946 96.5133 122.335 94.3662 125.493 93.9873C125.493 93.3558 126.85 92.9137 129.566 92.6611C129.566 91.5876 134.429 89.5667 144.154 86.5986C149.522 84.3252 153.374 83.1885 155.71 83.1885H158.079C158.079 82.557 159.342 81.9886 161.868 81.4834L163.478 81.7676C166.636 80.5046 174.214 79.2731 186.212 78.0732ZM172.382 87.2617L171.625 86.8828C163.541 88.4616 157.226 89.9456 152.679 91.335C144.028 112.049 137.902 125.279 134.302 131.025V131.973C137.523 131.846 139.133 131.531 139.133 131.025L141.501 131.31H143.87C144.375 131.31 144.817 131.215 145.196 131.025C145.638 131.215 145.985 131.31 146.238 131.31L148.89 130.646C148.89 131.089 152.742 131.531 160.447 131.973C160.952 131.973 161.426 131.878 161.868 131.688L163.857 131.973H166.888C182.108 126.857 194.454 121.458 203.926 115.774C212.325 109.08 217.409 103.176 219.177 98.0605L219.461 96.0713L219.177 95.4082C219.367 94.9661 219.461 94.6188 219.461 94.3662C219.461 91.9665 215.641 89.472 208 86.8828H207.242C207.052 86.8828 206.958 87.0091 206.958 87.2617C205.568 86.3145 201.274 85.6198 194.075 85.1777C192.433 85.4303 191.517 85.5566 191.328 85.5566C190.128 85.304 189.117 85.1777 188.296 85.1777C186.97 85.6198 181.666 86.3145 172.382 87.2617ZM146.522 143.245C146.143 142.993 145.701 142.866 145.196 142.866C145.196 143.94 141.565 144.729 134.302 145.234V145.613L133.639 145.234H133.355C128.366 146.055 125.872 146.75 125.872 147.318C120.062 156.917 113.399 168.884 105.884 183.22C113.399 187.135 121.072 190.293 128.903 192.692C129.597 193.261 132.881 194.082 138.754 195.155C139.007 195.408 142.733 196.071 149.932 197.145C151.132 196.892 151.827 196.766 152.016 196.766C154.479 197.271 156.058 197.744 156.752 198.187L158.079 197.523L164.236 198.187C181.855 196.355 192.938 193.987 197.485 191.082C203.863 188.367 208.378 184.956 211.031 180.852C212.799 179.715 214.504 175.768 216.146 169.011C214.63 164.969 213.367 162.033 212.357 160.201C211.41 159.57 209.705 157.644 207.242 154.423C205.916 153.034 204.81 152.339 203.926 152.339C202.158 151.392 200.895 150.255 200.137 148.929C198.685 148.929 193.948 147.034 185.928 143.245C184.097 143.245 181.255 142.456 177.403 140.877C177.15 140.877 176.834 140.972 176.456 141.161C171.719 140.277 167.741 139.835 164.52 139.835C153.721 142.108 147.722 143.245 146.522 143.245ZM111.947 158.117V158.78H112.989C112.989 158.591 113.083 158.275 113.273 157.833L112.61 157.454C112.168 157.517 111.947 157.738 111.947 158.117ZM110.242 159.443H110.905V160.201H110.242V159.443ZM104.842 171.379V172.705H105.505V171.379H104.842ZM86.1812 201.218C86.2443 201.66 86.4653 201.881 86.8442 201.881L87.2231 201.218V200.555H86.8442C86.4022 200.618 86.1812 200.839 86.1812 201.218ZM72.2563 221.584H72.6353V222.247H72.2563V221.584ZM61.0786 237.214H62.1206V238.161H61.0786V237.214Z" fill="#FF0C00"/>
<path d="M375.49 243.732H373.565L373.447 241.808C372.84 242.484 372.102 243.021 371.232 243.416C370.362 243.803 369.408 243.996 368.371 243.996C367.079 243.996 365.919 243.697 364.891 243.1C363.862 242.502 363.049 241.685 362.452 240.647C361.863 239.61 361.568 238.441 361.568 237.141C361.568 235.831 361.863 234.662 362.452 233.634C363.049 232.597 363.862 231.779 364.891 231.182C365.919 230.584 367.079 230.285 368.371 230.285C369.373 230.285 370.296 230.465 371.14 230.826C371.992 231.186 372.722 231.687 373.328 232.329V223.957H375.49V243.732ZM368.569 242.045C369.448 242.045 370.248 241.843 370.968 241.438C371.689 241.025 372.26 240.467 372.682 239.764C373.113 239.052 373.328 238.248 373.328 237.352V236.903C373.328 236.007 373.113 235.207 372.682 234.504C372.26 233.792 371.689 233.234 370.968 232.83C370.248 232.425 369.448 232.223 368.569 232.223C367.655 232.223 366.837 232.438 366.117 232.869C365.396 233.3 364.825 233.884 364.403 234.623C363.99 235.361 363.783 236.196 363.783 237.127C363.783 238.059 363.99 238.898 364.403 239.646C364.825 240.384 365.396 240.968 366.117 241.399C366.837 241.83 367.655 242.045 368.569 242.045ZM391.139 242.111C389.504 243.368 387.703 243.996 385.734 243.996C384.363 243.996 383.132 243.688 382.042 243.073C380.953 242.458 380.091 241.623 379.458 240.568C378.834 239.505 378.522 238.305 378.522 236.969C378.522 235.686 378.812 234.543 379.393 233.542C379.973 232.531 380.768 231.735 381.779 231.155C382.79 230.575 383.937 230.285 385.22 230.285C386.538 230.285 387.698 230.602 388.7 231.234C389.711 231.867 390.498 232.746 391.06 233.871C391.623 234.996 391.904 236.297 391.904 237.773V238.195H380.869C381.027 238.969 381.344 239.641 381.818 240.212C382.293 240.784 382.886 241.228 383.598 241.544C384.319 241.86 385.119 242.019 385.998 242.019C387.509 242.019 388.889 241.522 390.137 240.529L391.139 242.111ZM380.79 236.35H389.86C389.764 235.532 389.509 234.82 389.096 234.214C388.691 233.599 388.164 233.12 387.514 232.777C386.872 232.434 386.147 232.263 385.338 232.263C384.521 232.263 383.783 232.434 383.124 232.777C382.473 233.12 381.941 233.599 381.528 234.214C381.124 234.82 380.878 235.532 380.79 236.35ZM394.026 242.585L394.593 240.555C394.91 240.854 395.27 241.113 395.674 241.333C396.079 241.553 396.505 241.724 396.953 241.847C397.401 241.961 397.854 242.019 398.311 242.019C399.128 242.019 399.788 241.838 400.289 241.478C400.79 241.118 401.04 240.647 401.04 240.067C401.04 239.646 400.908 239.298 400.645 239.026C400.39 238.745 400.051 238.503 399.629 238.301C399.208 238.099 398.755 237.905 398.271 237.721C397.683 237.492 397.098 237.233 396.518 236.943C395.938 236.653 395.455 236.271 395.068 235.796C394.69 235.321 394.501 234.697 394.501 233.924C394.501 233.186 394.686 232.544 395.055 231.999C395.424 231.454 395.938 231.032 396.597 230.733C397.265 230.435 398.03 230.285 398.891 230.285C400.192 230.285 401.471 230.61 402.728 231.261L402.082 233.212C401.8 233.027 401.475 232.865 401.106 232.724C400.737 232.575 400.359 232.46 399.972 232.381C399.585 232.302 399.221 232.263 398.878 232.263C398.236 232.263 397.718 232.412 397.322 232.711C396.927 233.001 396.729 233.392 396.729 233.884C396.729 234.166 396.808 234.425 396.966 234.662C397.133 234.891 397.41 235.119 397.797 235.348C398.184 235.576 398.72 235.831 399.405 236.112C400.012 236.358 400.609 236.64 401.198 236.956C401.787 237.264 402.275 237.664 402.662 238.156C403.057 238.639 403.255 239.272 403.255 240.054C403.255 240.828 403.048 241.513 402.635 242.111C402.231 242.7 401.664 243.161 400.935 243.495C400.214 243.829 399.379 243.996 398.43 243.996C396.856 243.996 395.389 243.526 394.026 242.585ZM407.553 226.383C407.184 226.383 406.872 226.255 406.617 226C406.371 225.737 406.248 225.42 406.248 225.051C406.248 224.691 406.371 224.383 406.617 224.128C406.872 223.874 407.184 223.746 407.553 223.746C407.931 223.746 408.247 223.874 408.502 224.128C408.757 224.383 408.884 224.691 408.884 225.051C408.884 225.42 408.757 225.737 408.502 226C408.247 226.255 407.931 226.383 407.553 226.383ZM408.634 243.732H406.472V230.549H408.634V243.732ZM418.403 243.732C417.137 243.732 415.999 243.438 414.988 242.849C413.986 242.26 413.195 241.46 412.615 240.45C412.035 239.43 411.745 238.283 411.745 237.009C411.745 235.726 412.035 234.579 412.615 233.568C413.195 232.557 413.986 231.757 414.988 231.168C415.999 230.58 417.142 230.285 418.416 230.285C419.436 230.285 420.372 230.479 421.224 230.865C422.077 231.243 422.802 231.771 423.399 232.447L423.505 230.549H425.417V243.39C425.417 244.866 425.126 246.141 424.546 247.213C423.966 248.294 423.14 249.125 422.068 249.705C420.996 250.293 419.721 250.588 418.245 250.588C416.153 250.588 414.333 249.894 412.787 248.505L413.736 246.765C414.94 248.013 416.412 248.637 418.152 248.637C419.198 248.637 420.099 248.417 420.855 247.978C421.62 247.547 422.208 246.936 422.622 246.145C423.043 245.354 423.254 244.418 423.254 243.337V241.715C422.657 242.339 421.94 242.832 421.105 243.192C420.279 243.552 419.378 243.732 418.403 243.732ZM418.587 241.821C419.449 241.821 420.231 241.627 420.934 241.241C421.637 240.845 422.2 240.309 422.622 239.632C423.043 238.947 423.254 238.173 423.254 237.312V236.706C423.254 235.835 423.043 235.062 422.622 234.385C422.2 233.708 421.637 233.177 420.934 232.79C420.231 232.395 419.449 232.197 418.587 232.197C417.7 232.197 416.904 232.408 416.201 232.83C415.498 233.251 414.94 233.827 414.527 234.557C414.123 235.277 413.92 236.095 413.92 237.009C413.92 237.923 414.123 238.745 414.527 239.474C414.94 240.204 415.498 240.779 416.201 241.201C416.904 241.614 417.7 241.821 418.587 241.821ZM441.725 243.732H439.562V236.125C439.562 234.939 439.229 233.999 438.561 233.304C437.901 232.61 437 232.263 435.858 232.263C435.041 232.263 434.307 232.447 433.656 232.816C433.006 233.177 432.492 233.687 432.114 234.346C431.736 235.005 431.547 235.77 431.547 236.64V243.732H429.385V230.549H431.27L431.349 232.685C431.833 231.911 432.5 231.318 433.353 230.905C434.214 230.492 435.181 230.285 436.253 230.285C437.932 230.285 439.264 230.791 440.248 231.801C441.232 232.812 441.725 234.174 441.725 235.888V243.732ZM451.217 242.585L451.784 240.555C452.1 240.854 452.46 241.113 452.865 241.333C453.269 241.553 453.695 241.724 454.144 241.847C454.592 241.961 455.044 242.019 455.501 242.019C456.319 242.019 456.978 241.838 457.479 241.478C457.98 241.118 458.23 240.647 458.23 240.067C458.23 239.646 458.099 239.298 457.835 239.026C457.58 238.745 457.242 238.503 456.82 238.301C456.398 238.099 455.945 237.905 455.462 237.721C454.873 237.492 454.289 237.233 453.708 236.943C453.128 236.653 452.645 236.271 452.258 235.796C451.88 235.321 451.691 234.697 451.691 233.924C451.691 233.186 451.876 232.544 452.245 231.999C452.614 231.454 453.128 231.032 453.788 230.733C454.456 230.435 455.22 230.285 456.082 230.285C457.382 230.285 458.661 230.61 459.918 231.261L459.272 233.212C458.991 233.027 458.666 232.865 458.296 232.724C457.927 232.575 457.549 232.46 457.163 232.381C456.776 232.302 456.411 232.263 456.068 232.263C455.427 232.263 454.908 232.412 454.513 232.711C454.117 233.001 453.919 233.392 453.919 233.884C453.919 234.166 453.999 234.425 454.157 234.662C454.324 234.891 454.601 235.119 454.987 235.348C455.374 235.576 455.91 235.831 456.596 236.112C457.202 236.358 457.8 236.64 458.389 236.956C458.978 237.264 459.465 237.664 459.852 238.156C460.248 238.639 460.445 239.272 460.445 240.054C460.445 240.828 460.239 241.513 459.826 242.111C459.421 242.7 458.854 243.161 458.125 243.495C457.404 243.829 456.569 243.996 455.62 243.996C454.047 243.996 452.579 243.526 451.217 242.585ZM471.124 243.416C470.254 243.803 469.406 243.996 468.58 243.996C467.789 243.996 467.094 243.825 466.497 243.482C465.899 243.13 465.433 242.643 465.099 242.019C464.765 241.386 464.598 240.652 464.598 239.817V232.487H462.291V230.549H464.704V227.253H466.76V230.549H470.702V232.487H466.76V239.421C466.76 240.212 466.971 240.85 467.393 241.333C467.824 241.816 468.386 242.058 469.081 242.058C469.643 242.058 470.206 241.891 470.768 241.557L471.124 243.416ZM486.101 243.732H484.202L484.123 241.597C483.64 242.37 483.002 242.963 482.211 243.376C481.429 243.79 480.502 243.996 479.43 243.996C477.681 243.996 476.296 243.469 475.277 242.414C474.266 241.351 473.761 239.9 473.761 238.063V230.549H475.923V237.905C475.923 239.153 476.274 240.151 476.978 240.898C477.689 241.645 478.634 242.019 479.812 242.019C481.042 242.019 482.036 241.614 482.792 240.806C483.556 239.997 483.938 238.942 483.938 237.642V230.549H486.101V243.732ZM503.055 243.732H501.13L501.011 241.808C500.405 242.484 499.667 243.021 498.796 243.416C497.926 243.803 496.973 243.996 495.936 243.996C494.644 243.996 493.483 243.697 492.455 243.1C491.427 242.502 490.614 241.685 490.016 240.647C489.427 239.61 489.133 238.441 489.133 237.141C489.133 235.831 489.427 234.662 490.016 233.634C490.614 232.597 491.427 231.779 492.455 231.182C493.483 230.584 494.644 230.285 495.936 230.285C496.938 230.285 497.86 230.465 498.704 230.826C499.557 231.186 500.286 231.687 500.893 232.329V223.957H503.055V243.732ZM496.133 242.045C497.012 242.045 497.812 241.843 498.533 241.438C499.253 241.025 499.825 240.467 500.247 239.764C500.677 239.052 500.893 238.248 500.893 237.352V236.903C500.893 236.007 500.677 235.207 500.247 234.504C499.825 233.792 499.253 233.234 498.533 232.83C497.812 232.425 497.012 232.223 496.133 232.223C495.219 232.223 494.402 232.438 493.681 232.869C492.96 233.3 492.389 233.884 491.967 234.623C491.554 235.361 491.348 236.196 491.348 237.127C491.348 238.059 491.554 238.898 491.967 239.646C492.389 240.384 492.96 240.968 493.681 241.399C494.402 241.83 495.219 242.045 496.133 242.045ZM508.275 226.383C507.906 226.383 507.594 226.255 507.339 226C507.093 225.737 506.97 225.42 506.97 225.051C506.97 224.691 507.093 224.383 507.339 224.128C507.594 223.874 507.906 223.746 508.275 223.746C508.653 223.746 508.97 223.874 509.225 224.128C509.479 224.383 509.607 224.691 509.607 225.051C509.607 225.42 509.479 225.737 509.225 226C508.97 226.255 508.653 226.383 508.275 226.383ZM509.356 243.732H507.194V230.549H509.356V243.732ZM519.376 243.996C518.066 243.996 516.889 243.697 515.843 243.1C514.797 242.502 513.971 241.689 513.364 240.661C512.767 239.624 512.468 238.45 512.468 237.141C512.468 235.84 512.767 234.675 513.364 233.647C513.971 232.61 514.797 231.792 515.843 231.195C516.889 230.588 518.066 230.285 519.376 230.285C520.686 230.285 521.859 230.588 522.896 231.195C523.933 231.792 524.75 232.61 525.348 233.647C525.946 234.675 526.245 235.84 526.245 237.141C526.245 238.45 525.946 239.624 525.348 240.661C524.75 241.689 523.933 242.502 522.896 243.1C521.859 243.697 520.686 243.996 519.376 243.996ZM519.363 242.045C520.25 242.045 521.046 241.83 521.749 241.399C522.452 240.968 523.006 240.384 523.41 239.646C523.823 238.907 524.03 238.072 524.03 237.141C524.03 236.209 523.823 235.374 523.41 234.636C523.006 233.897 522.452 233.313 521.749 232.882C521.046 232.452 520.25 232.236 519.363 232.236C518.475 232.236 517.675 232.452 516.963 232.882C516.26 233.313 515.702 233.897 515.289 234.636C514.885 235.374 514.683 236.209 514.683 237.141C514.683 238.072 514.885 238.907 515.289 239.646C515.702 240.384 516.26 240.968 516.963 241.399C517.675 241.83 518.475 242.045 519.363 242.045Z" fill="white"/>
</svg>
